<?xml version="1.0" encoding="utf-8"?>
<?xml-stylesheet type="text/xsl" href="rss1.xsl"?>
<rss version="2.0" xmlns:atom="http://www.w3.org/2005/Atom" xmlns:content="http://purl.org/rss/1.0/modules/content/" xmlns:dc="http://purl.org/dc/elements/1.1/" xmlns:media="http://search.yahoo.com/mrss/">
<channel>
 <title>Getty</title>
 <link>http://www.gettyimg.com/</link>
 <atom:link href="http://www.gettyimg.com/" rel="self" type="application/rss+xml" />

 
                <item>
                <title><![CDATA[【Albums (lossless)】The Garfield Movie (Original Motion Picture Soundtrack) - Various Artists (2024) [Qobuz Hi-Res 24/bit/44.1kHz] [FLAC]]]></title>
                <link><![CDATA[https://sharemania.us/threads/the-garfield-movie-original-motion-picture-soundtrack-various-artists-2024-qobuz-hi-res-24-bit-44-1khz-flac.251042/]]></link>
                <description><![CDATA[<article>
<blockquote class="messageText SelectQuoteContainer ugc baseHtml">
Release Date: 2024<br>
Source: <a href="https://www.qobuz.com/us-en/album/the-garfield-movie-various-artists/jxowwgbl7803a" target="_blank" class="externalLink" rel="nofollow">Qobuz</a><br>
Format: 24bit/44.1kHz FLAC<br>
<br>
Tracklist:<br>
<br>
1. Jon Batiste - Good Life<br>
2. Keith Urban &amp; Snoop Dogg - Let It Roll<br>
3. Calum Scott - Then There Was You<br>
4. Granville &amp; Will Champlin - Bring It<br>
5. Marvin Gaye - Lets Get It On<br>
6. John Debney - Meet Garfield<br>
7. Hannah Waddingham - Im Back<br>
8. John Debney - Flashback<br>
9. John Debney - The Pine Cone<br>
<br>
<div class="bbCodeBlock bbCodeVfcHH HiddenContent">
<div class="attribution type">Hidden Content:</div>
<blockquote>You must reply before you can see the hidden data contained here.</blockquote>
</div>
<div class="messageTextEndMarker">&nbsp;</div>
</blockquote>
</article>]]></description>
                <author><![CDATA[phechft]]></author>
                </item>

                
                <item>
                <title><![CDATA[【Albums (lossy)】Mae Muller - Sorry I'm Late... Again [Deluxe Edition] (2023) (Explicit) [Qobuz 320kbps] [MP3]]]></title>
                <link><![CDATA[https://sharemania.us/threads/mae-muller-sorry-im-late-again-deluxe-edition-2023-explicit-qobuz-320kbps-mp3.251041/]]></link>
                <description><![CDATA[<article>
<blockquote class="messageText SelectQuoteContainer ugc baseHtml">
Release Date: 2023<br>
Source: <a href="https://www.qobuz.com/gb-en/album/sorry-im-late-again-mae-muller/ch1l8xwizbuxc" target="_blank" class="externalLink" rel="nofollow">Qobuz</a> <br>
Format: MP3<br>
<br>
Tracklist:<br>
<br>
01. I Just Came To Dance<br>
02. Sorry Daniel<br>
03. Bitch With A Broken Heart<br>
04. I Wrote A Song<br>
05. Me, Myself &amp; I<br>
06. Tatiana<br>
07. Somebody New<br>
08. I Wish I Could Hate You<br>
09. Little Bit Sad<br>
10. MTJL (Maybe That’s Just Life)<br>
11. Breathe<br>
12. Something Real<br>
13. Nervous (In A Good Way)<br>
14. Better Days<br>
15. Porn Lied To Us<br>
16. Miss America<br>
17. Written By A Woman<br>
18. Feels This Good<br>
<br>
<div class="bbCodeBlock bbCodeVfcHH HiddenContent">
<div class="attribution type">Hidden Content:</div>
<blockquote>You must reply before you can see the hidden data contained here.</blockquote>
</div>
<div class="messageTextEndMarker">&nbsp;</div>
</blockquote>
</article>]]></description>
                <author><![CDATA[phechft]]></author>
                </item>

                
                <item>
                <title><![CDATA[【Bugs!】KATSEYE - Touch (Bugs! 4K)]]></title>
                <link><![CDATA[https://sharemania.us/threads/katseye-touch-bugs-4k.251040/]]></link>
                <description><![CDATA[<article>
<blockquote class="messageText SelectQuoteContainer ugc baseHtml">
<span data-s9e-mediaembed="youtube" style="display:inline-block;width:100%;max-width:640px"><span style="display:block;overflow:hidden;position:relative;padding-bottom:56.25%"><iframe allowfullscreen="" loading="lazy" scrolling="no" style="background:url(https://i.ytimg.com/vi/l9CZykYZkOQ/hqdefault.jpg) 50% 50% / cover;border:0;height:100%;left:0;position:absolute;width:100%" src="https://www.youtube.com/embed/l9CZykYZkOQ"></iframe></span></span><br>
<div class="ToggleTriggerAnchor bbCodeSpoilerContainer">
<button type="button" class="button bbCodeSpoilerButton ToggleTrigger Tooltip JsOnly" data-target="> .SpoilerTarget"><span>Spoiler: <span class="SpoilerTitle">MediaInfo</span></span></button>
<div class="SpoilerTarget bbCodeSpoilerText">General<br>
Complete name : ./bugs/KATSEYE - Touch (Bugs! 4K).mp4<br>
Format : MPEG-4<br>
Format profile : Base Media / Version 2<br>
Codec ID : mp42 (mp42/mp41)<br>
File size : 1.26 GiB<br>
Duration : 2 min 18 s<br>
Overall bit rate mode : Variable<br>
Overall bit rate : 78.5 Mb/s<br>
Frame rate : 23.976 FPS<br>
Encoded date : 2024-07-25 03:02:39 UTC<br>
Tagged date : 2024-07-25 03:03:44 UTC<br>
TIM : 00:00:00:00<br>
TSC : 24000<br>
TSZ : 1001<br>
<br>
Video<br>
ID : 1<br>
Format : AVC<br>
Format/Info : Advanced Video Codec<br>
Format profile : High@L5.2<br>
Format settings : CABAC / 2 Ref Frames<br>
Format settings, CABAC : Yes<br>
Format settings, Reference frames : 2 frames<br>
Codec ID : avc1<br>
Codec ID/Info : Advanced Video Coding<br>
Duration : 2 min 18 s<br>
Bit rate : 78.1 Mb/s<br>
Width : 3 840 pixels<br>
Height : 2 160 pixels<br>
Display aspect ratio : 16:9<br>
Frame rate mode : Constant<br>
Frame rate : 23.976 (24000/1001) FPS<br>
Color space : YUV<br>
Chroma subsampling : 4:2:0<br>
Bit depth : 8 bits<br>
Scan type : Progressive<br>
Bits/(Pixel*Frame) : 0.393<br>
Stream size : 1.26 GiB (100%)<br>
Language : English<br>
Encoded date : 2024-07-25 03:02:39 UTC<br>
Tagged date : 2024-07-25 03:02:39 UTC<br>
Color range : Limited<br>
Color primaries : BT.709<br>
Transfer characteristics : BT.709<br>
Matrix coefficients : BT.709<br>
Codec configuration box : avcC<br>
<br>
Audio<br>
ID : 2<br>
Format : AAC LC<br>
Format/Info : Advanced Audio Codec Low Complexity<br>
Codec ID : mp4a-40-2<br>
Duration : 2 min 18 s<br>
Source duration : 2 min 18 s<br>
Bit rate mode : Variable<br>
Bit rate : 317 kb/s<br>
Maximum bit rate : 452 kb/s<br>
Channel(s) : 2 channels<br>
Channel layout : L R<br>
Sampling rate : 48.0 kHz<br>
Frame rate : 46.875 FPS (1024 SPF)<br>
Compression mode : Lossy<br>
Stream size : 5.24 MiB (0%)<br>
Source stream size : 5.24 MiB (0%)<br>
Language : English<br>
Encoded date : 2024-07-25 03:02:40 UTC<br>
Tagged date : 2024-07-25 03:02:40 UTC</div>
</div>
<div class="bbCodeBlock bbCodeVfcHH HiddenContent">
<div class="attribution type">Hidden Content:</div>
<blockquote>You must either reply or click 'Like' to see the hidden information contained here.</blockquote>
</div>
<div class="messageTextEndMarker">&nbsp;</div>
</blockquote>
</article>]]></description>
                <author><![CDATA[Once14]]></author>
                </item>

                
                <item>
                <title><![CDATA[【Albums (lossless)】Mae Muller - Sorry I'm Late... Again (2023) (Explicit) [Qobuz 16bit/44.1kHz] [FLAC]]]></title>
                <link><![CDATA[https://sharemania.us/threads/mae-muller-sorry-im-late-again-2023-explicit-qobuz-16bit-44-1khz-flac.251039/]]></link>
                <description><![CDATA[<article>
<blockquote class="messageText SelectQuoteContainer ugc baseHtml">
Release Date: 2023<br>
Source: <a href="https://www.qobuz.com/us-en/album/sorry-im-late-mae-muller/ryt2rpgj8llfc" target="_blank" class="externalLink" rel="nofollow">Qobuz</a><br>
Format: FLAC<br>
<br>
Tracklist:<br>
<br>
01. I Just Came To Dance<br>
02. Sorry Daniel<br>
03. Bitch With A Broken Heart<br>
04. I Wrote A Song<br>
05. Me, Myself &amp; I<br>
06. Tatiana<br>
07. Somebody New<br>
08. I Wish I Could Hate You<br>
09. Little Bit Sad<br>
10. MTJL (Maybe That’s Just Life)<br>
11. Breathe<br>
12. Something Real<br>
13. Nervous (In A Good Way)<br>
14. Better Days<br>
15. Porn Lied To Us<br>
16. Miss America<br>
17. Written By A Woman<br>
<br>
<div class="bbCodeBlock bbCodeVfcHH HiddenContent">
<div class="attribution type">Hidden Content:</div>
<blockquote>You must reply before you can see the hidden data contained here.</blockquote>
</div>
<div class="messageTextEndMarker">&nbsp;</div>
</blockquote>
</article>]]></description>
                <author><![CDATA[phechft]]></author>
                </item>

                </channel></rss>